<svg width="20" height="20" viewBox="0 0 800 800" fill="none" xmlns="http://www.w3.org/2000/svg">
  <g transform="translate(-219.480899,1065.401298) scale(0.161,-0.161)" stroke="none">
    <path d="M2755 6550 c-424 -50 -778 -280 -968 -630 -99 -181 -191 -479 -206 -669 -26 -320 70 -634 277 -911 106 -143 232 -277 639 -680 512 -509 618 -609 913 -870 222 -196 543 -493 715 -661 201 -196 273 -253 401 -319 132 -68 230 -93 374 -98 149 -5 230 7 360 55 261 96 499 278 648 495 66 96 153 278 182 378 31 110 38 306 15 425 -26 129 -51 197 -151 400 -71 144 -99 190 -140 232 -42 42 -59 53 -96 58 -60 9 -129 -20 -158 -67 -41 -67 -24 -139 74 -314 65 -117 124 -287 135 -387 9 -85 -3 -222 -25 -292 -21 -65 -86 -194 -125 -251 -47 -69 -170 -188 -240 -234 -108 -70 -258 -138 -333 -151 -139 -23 -288 9 -433 94 -52 30 -121 90 -250 217 -98 97 -245 234 -327 305 -655 568 -729 636 -1206 1114 -375 375 -584 599 -689 738 -77 101 -157 269 -188 393 -94 377 67 871 359 1105 194 154 422 217 654 180 326 -52 550 -178 849 -478 83 -82 177 -173 209 -201 105 -89 186 -168 795 -774 328 -326 606 -598 619 -603 36 -14 100 -11 139 7 54 26 87 77 87 135 0 72 -48 133 -258 326 -99 92 -485 471 -856 843 -449 450 -703 698 -758 738 -96 71 -316 198 -418 241 -209 89 -447 131 -619 111z" fill="#4A4A4A"/>
    <path d="M3310 5494 c-168 -28 -264 -62 -372 -133 -133 -87 -249 -235 -299 -381 -34 -99 -38 -279 -10 -390 26 -104 94 -246 154 -323 76 -98 307 -335 524 -539 113 -106 243 -236 288 -289 95 -109 134 -134 203 -126 110 12 176 132 126 230 -9 18 -182 199 -383 402 -202 204 -396 405 -432 447 -76 90 -122 171 -144 253 -53 205 32 377 235 474 71 34 80 36 180 36 89 0 117 -4 183 -27 42 -16 89 -28 103 -28 57 0 116 51 133 115 21 82 -23 161 -116 205 -103 48 -296 87 -373 74z" fill="#8A8A8A"/>
    <path d="M4000 5067 c-50 -16 -105 -76 -118 -128 -23 -91 22 -173 122 -222 40 -20 68 -44 95 -80 21 -29 167 -178 325 -333 158 -155 306 -306 330 -338 56 -71 103 -183 117 -278 9 -60 8 -85 -5 -141 -37 -157 -114 -236 -295 -298 -83 -29 -146 -32 -241 -13 -133 26 -187 29 -216 9 -74 -48 -84 -155 -21 -224 34 -36 129 -79 225 -102 107 -26 220 -21 343 16 220 66 349 165 443 339 71 131 90 208 90 361 0 187 -35 299 -142 456 -57 84 -75 104 -485 509 -194 191 -314 318 -342 361 -24 37 -59 76 -77 87 -43 26 -103 34 -148 19z" fill="#8A8A8A"/>
  </g>
</svg>
